<svg width="150" height="124" viewBox="0 0 150 124" fill="none" xmlns="http://www.w3.org/2000/svg">
<path d="M149.99 117.198L149.889 114.893C149.837 113.715 148.834 112.804 147.663 112.854C146.485 112.905 145.572 113.902 145.624 115.08L145.726 117.404C145.727 117.418 145.727 117.432 145.728 117.446C145.756 117.875 145.608 118.285 145.314 118.598C145.022 118.91 144.626 119.082 144.199 119.082H131.711V79.6775L134.93 80.8154C140.479 82.7762 144.308 87.8402 144.69 93.721L145.044 101.817C145.095 102.995 146.09 103.91 147.27 103.856C148.448 103.805 149.361 102.808 149.309 101.631L148.954 93.5129C148.953 93.4989 148.953 93.4848 148.952 93.4708C148.468 85.8717 143.523 79.3241 136.353 76.7905L130.391 74.6835C130.356 74.6689 130.323 74.6501 130.287 74.6375L112.482 68.3445C112.479 68.3434 112.475 68.3422 112.472 68.3413C112.406 68.3185 112.341 68.2991 112.274 68.2818C112.24 68.2728 112.206 68.2669 112.172 68.2596C110.994 67.9546 109.717 68.2936 108.849 69.1634L108.299 69.7148L103.6 67.3564L103.6 63.2378C105.019 62.2604 106.356 61.0947 107.57 59.7939C107.585 59.7784 107.599 59.7632 107.614 59.7476C110.679 56.4459 112.942 52.2892 113.712 48.1595C113.733 48.0505 113.753 47.9413 113.771 47.8323C113.791 47.7192 113.808 47.6064 113.825 47.4936C113.853 47.3049 113.878 47.1166 113.9 46.9285C113.905 46.8834 113.912 46.838 113.916 46.7928C113.938 46.5883 113.956 46.3841 113.97 46.1808H114.856C117.608 46.1808 119.846 43.9422 119.846 41.1907V35.5976C119.846 35.333 119.823 35.0708 119.782 34.8119C120.096 34.2403 120.277 33.5834 120.277 32.8835V30.4988C120.277 28.6856 119.072 27.1525 117.431 26.6784V26.3418C117.431 26.1382 117.429 25.9349 117.424 25.7327C117.279 20.0406 115.044 14.6485 111.131 10.5502C107.561 6.8116 102.891 4.44499 97.8624 3.79899C97.7856 3.6613 97.7024 3.52829 97.616 3.39763C97.5937 3.36423 97.5703 3.332 97.5474 3.29889C97.4601 3.17233 97.3681 3.04958 97.272 2.93063C97.255 2.90983 97.2389 2.88844 97.2219 2.86794C97.103 2.72467 96.9782 2.58698 96.8469 2.45544C96.8425 2.45104 96.8379 2.44694 96.8332 2.44225C96.7054 2.3151 96.5718 2.1944 96.4336 2.07897C96.418 2.06608 96.4028 2.0529 96.3873 2.04001C96.1025 1.8068 95.7969 1.60026 95.4744 1.42125C95.4454 1.40514 95.4167 1.38903 95.3874 1.37321C95.2271 1.28766 95.0639 1.20739 94.8961 1.1362C94.8876 1.13268 94.8785 1.12975 94.8697 1.12594C94.7147 1.0609 94.5559 1.00407 94.3951 0.951917C94.3514 0.937561 94.3075 0.923792 94.2635 0.910609C94.0927 0.859632 93.9205 0.81305 93.7444 0.776721C93.7344 0.774671 93.7245 0.773499 93.7145 0.771741C93.5461 0.737757 93.375 0.713147 93.2021 0.693225C93.1546 0.687659 93.1072 0.682971 93.0594 0.678577C92.8754 0.661878 92.6903 0.650452 92.5028 0.650452H90.488C90.3005 0.650452 90.1154 0.661878 89.9314 0.678577C89.8833 0.682971 89.8359 0.687952 89.7884 0.693225C89.6162 0.712854 89.4454 0.737757 89.2772 0.771449C89.2669 0.773499 89.2567 0.774671 89.2464 0.776721C89.0707 0.81305 88.8981 0.859339 88.7276 0.910316C88.6833 0.923499 88.6394 0.937561 88.5955 0.951917C88.4349 1.00407 88.2764 1.0609 88.1214 1.12565C88.1126 1.12946 88.1033 1.13239 88.0945 1.1362C87.9266 1.20739 87.7637 1.28766 87.6035 1.37291C87.5739 1.38873 87.5446 1.40514 87.5153 1.42125C87.3588 1.50797 87.2053 1.59997 87.0571 1.69987C87.0568 1.70016 87.0562 1.70045 87.0559 1.70075C86.8995 1.80622 86.7492 1.92018 86.603 2.03971C86.5872 2.0526 86.5716 2.06608 86.5561 2.07926C86.4181 2.1944 86.2848 2.31481 86.1574 2.44167C86.1527 2.44635 86.1477 2.45075 86.143 2.45544C86.0121 2.58669 85.8873 2.72438 85.7686 2.86735C85.7513 2.88815 85.7349 2.90954 85.7179 2.93063C85.6218 3.04928 85.5301 3.17204 85.4428 3.29831C85.42 3.33141 85.3962 3.36364 85.374 3.39733C85.2875 3.5277 85.2043 3.66101 85.1276 3.7987C80.0988 4.4447 75.4288 6.8116 71.8593 10.5496C69.9524 12.5468 68.4477 14.8524 67.3854 17.3488L55.0212 5.76628C52.4835 3.38913 48.5129 3.3944 45.9822 5.77888L32.5701 18.4135L32.5677 16.9363C32.5665 16.0896 32.2358 15.2942 31.6361 14.6966C31.0375 14.0998 30.2433 13.7714 29.3984 13.7714C29.3969 13.7714 29.3951 13.7714 29.3937 13.7714L19.339 13.7854C17.5917 13.7881 16.1717 15.2116 16.1737 16.9598L16.2013 33.8333L2.07458 47.1412C0.791086 48.3503 0.05544 49.9865 0.00299854 51.749C-0.049443 53.5115 0.587472 55.1887 1.79626 56.4717C3.00506 57.7552 4.64129 58.4908 6.40379 58.5435C6.47147 58.5456 6.53856 58.5465 6.60565 58.5465C8.29403 58.5465 9.89276 57.9128 11.1268 56.75L15.9106 52.2432L15.9314 67.2084C15.9332 68.3861 16.8883 69.3398 18.066 69.3398C18.0669 69.3398 18.0681 69.3398 18.069 69.3398C19.2479 69.338 20.2024 68.3812 20.2006 67.2022L20.1739 48.2272L50.5203 19.6396L62.7119 31.0607V32.8832C62.7119 33.0069 62.7192 33.1293 62.7304 33.2509C62.7324 33.2735 62.7342 33.296 62.7368 33.3186C62.7936 33.8521 62.953 34.3607 63.2064 34.8189C63.166 35.0752 63.1435 35.3351 63.1435 35.5973V41.1904C63.1435 43.9419 65.382 46.1805 68.1339 46.1805H69.0169C69.0307 46.3915 69.0494 46.603 69.0717 46.8154C69.0778 46.8752 69.0863 46.9352 69.0934 46.995C69.1139 47.1711 69.1367 47.3474 69.1628 47.5244C69.1783 47.6304 69.1947 47.7368 69.2123 47.8428C69.2334 47.9691 69.2571 48.096 69.2809 48.2225C69.3301 48.4847 69.3855 48.7472 69.4467 49.0094C69.4578 49.0575 69.4681 49.1055 69.4798 49.1536C69.5223 49.3297 69.5683 49.5054 69.616 49.6812C69.6257 49.7164 69.6354 49.7518 69.6453 49.787C70.0253 51.1581 70.5603 52.5195 71.2259 53.8399C71.2329 53.854 71.24 53.868 71.2473 53.8821C71.5133 54.4077 71.7998 54.926 72.1057 55.436C72.1461 55.5034 72.186 55.5708 72.227 55.6379C72.3096 55.7729 72.3934 55.9074 72.4786 56.041C72.5431 56.1421 72.6087 56.2426 72.6746 56.3428C72.7487 56.4555 72.822 56.5689 72.8979 56.6808C73.0332 56.8804 73.1721 57.0778 73.3133 57.2741C73.3736 57.3579 73.4355 57.4402 73.4967 57.5234C73.6019 57.6661 73.7085 57.8079 73.8169 57.9485C73.8761 58.0253 73.935 58.102 73.9947 58.1779C74.1421 58.3651 74.2921 58.5509 74.4447 58.7343C74.4667 58.7606 74.4878 58.7873 74.5098 58.8134C74.6777 59.0135 74.8493 59.21 75.0234 59.4052C75.0846 59.474 75.1467 59.5417 75.2085 59.6097C75.331 59.7441 75.4549 59.8774 75.5803 60.0093C75.6497 60.0822 75.7186 60.1555 75.7886 60.2275C75.9392 60.3822 76.0918 60.5349 76.2459 60.6857C76.357 60.7944 76.4697 60.9008 76.5828 61.0071C76.6775 61.0962 76.7721 61.1855 76.8682 61.2731C76.9845 61.3795 77.102 61.4838 77.22 61.5875C77.2827 61.6426 77.346 61.6971 77.4093 61.7513C78.0477 62.3012 78.7089 62.813 79.3895 63.2817L79.3889 67.3555L74.692 69.7145L74.1406 69.1622C73.6127 68.6334 72.9339 68.3006 72.2182 68.189C72.1388 68.1767 72.0588 68.167 71.9785 68.16C71.8983 68.1532 71.8177 68.1488 71.7368 68.1477C71.6563 68.1465 71.5751 68.1479 71.4945 68.1523C71.2731 68.1644 71.0519 68.1992 70.8336 68.2546C70.792 68.2634 70.7501 68.2716 70.7085 68.2827C70.6435 68.2997 70.5655 68.3229 70.5081 68.3434L62.4934 71.1761L62.4723 55.9932C62.4696 54.0356 60.8762 52.4454 58.9194 52.4454C58.9177 52.4454 58.9162 52.4454 58.9144 52.4454L42.2181 52.4688C41.2692 52.4703 40.3774 52.8409 39.7074 53.513C39.0373 54.1847 38.6688 55.0777 38.6703 56.0266L38.7069 82.1539C38.704 82.1575 38.701 82.161 38.6978 82.1645C38.6401 82.2301 38.5853 82.2981 38.5285 82.3646C38.4376 82.4709 38.3462 82.5767 38.2578 82.6854C38.2021 82.7536 38.1491 82.824 38.0946 82.8931C38.0082 83.0021 37.9211 83.1105 37.8373 83.2215C37.7837 83.2924 37.7328 83.3654 37.68 83.4371C37.5983 83.5485 37.5154 83.6592 37.436 83.7726C37.3847 83.8455 37.3364 83.9205 37.2863 83.9941C37.2086 84.108 37.1301 84.2217 37.0548 84.3374C37.0059 84.4127 36.9596 84.4901 36.9119 84.5662C36.8386 84.6825 36.7645 84.7986 36.6939 84.9166C36.6479 84.9934 36.6048 85.0719 36.5597 85.1493C36.4906 85.2688 36.4203 85.3877 36.3535 85.5087C36.3095 85.5887 36.2682 85.6702 36.2254 85.751C36.1616 85.8714 36.0965 85.991 36.035 86.1128C35.9919 86.1981 35.9521 86.2848 35.9102 86.3706C35.8522 86.4899 35.7933 86.6085 35.7376 86.7292C35.6969 86.8174 35.6594 86.9071 35.6202 86.9961C35.5671 87.1165 35.5129 87.2361 35.4622 87.3577C35.4242 87.4491 35.389 87.5422 35.3524 87.6345C35.3043 87.7549 35.2551 87.8747 35.2097 87.9963C35.174 88.0918 35.1414 88.1885 35.1072 88.2846C35.0644 88.405 35.0202 88.5248 34.9794 88.6461C34.9466 88.7443 34.917 88.8439 34.886 88.9426C34.8479 89.0633 34.8083 89.1834 34.7726 89.3053C34.743 89.4064 34.7166 89.5086 34.6885 89.6103C34.6551 89.7316 34.6203 89.8523 34.5892 89.9745C34.5631 90.077 34.5403 90.181 34.516 90.2844C34.487 90.4069 34.4565 90.5291 34.4298 90.6524C34.407 90.7584 34.3876 90.8657 34.3665 90.9723C34.3425 91.0942 34.317 91.2155 34.2951 91.3379C34.2754 91.4487 34.2593 91.5603 34.2417 91.6713C34.2227 91.7912 34.2019 91.9107 34.1852 92.0311C34.1691 92.1454 34.1568 92.2605 34.143 92.3751C34.1287 92.494 34.1125 92.6124 34.1002 92.7319C34.0882 92.8482 34.08 92.9654 34.0704 93.0823C34.0613 93.1913 34.0498 93.3 34.0425 93.4092L20.3245 93.4283C20.2765 93.4283 20.2375 93.3893 20.2375 93.3413L20.2196 80.4653C20.2179 79.2872 19.2628 78.3336 18.0851 78.3336C18.0842 78.3336 18.083 78.3336 18.0821 78.3336C16.9032 78.3354 15.9487 79.2922 15.9505 80.4711L15.9684 93.3474C15.9719 95.7474 17.9254 97.6974 20.3245 97.6974C20.3266 97.6974 20.3286 97.6974 20.3304 97.6974L33.8541 97.6787L33.0004 117.198C32.9058 118.786 33.4747 120.36 34.5628 121.519C35.6547 122.683 37.196 123.35 38.791 123.35H144.199C145.794 123.35 147.335 122.683 148.427 121.519C149.516 120.36 150.084 118.786 149.99 117.198ZM115.577 41.1904C115.577 41.5879 115.254 41.9114 114.856 41.9114H114.004V36.8547H115.577V41.1904ZM88.6699 6.34988C88.6719 6.34226 88.6754 6.33523 88.6775 6.32761C88.756 6.02117 88.9081 5.74929 89.1108 5.52781C89.1158 5.52224 89.1208 5.51667 89.1257 5.5114C89.1899 5.44284 89.2593 5.37956 89.3329 5.32156C89.3414 5.31482 89.3504 5.30837 89.3592 5.30193C89.5081 5.18884 89.6736 5.09861 89.8511 5.03386C89.8646 5.02888 89.8778 5.02361 89.8913 5.01921C89.9765 4.9905 90.0644 4.96794 90.1544 4.95153C90.1705 4.94861 90.1869 4.94655 90.203 4.94421C90.2964 4.92986 90.3911 4.92019 90.4877 4.92019H92.5025C92.5992 4.92019 92.6941 4.92986 92.7873 4.94421C92.8034 4.94655 92.8198 4.94861 92.8359 4.95153C92.9255 4.96794 93.0134 4.99021 93.0987 5.01921C93.1125 5.0239 93.1259 5.02917 93.1397 5.03415C93.3167 5.09861 93.4819 5.18884 93.6304 5.30163C93.6395 5.30837 93.6489 5.31511 93.6577 5.32185C93.7309 5.37956 93.7998 5.44255 93.8639 5.51081C93.8695 5.51667 93.8745 5.52253 93.8797 5.52839C94.0822 5.74988 94.2339 6.02117 94.3125 6.32732C94.3145 6.33494 94.318 6.34167 94.3201 6.34929C94.3549 6.49167 94.3755 6.63992 94.3755 6.79285V13.9955C94.3755 15.0282 93.5352 15.8685 92.5028 15.8685H90.488C89.4553 15.8685 88.6151 15.0282 88.6151 13.9955V6.79285H88.6148C88.6148 6.63992 88.6353 6.49226 88.6699 6.34988ZM28.3003 18.0417L28.3074 22.4286L20.4637 29.8179L20.4446 18.0528L28.3003 18.0417ZM65.953 22.1037C65.9123 22.3229 65.8725 22.542 65.8379 22.7629C65.8186 22.8865 65.8027 23.0102 65.7854 23.1341C65.7573 23.3354 65.7286 23.5363 65.7058 23.7388C65.6864 23.9084 65.673 24.0783 65.6574 24.2483C65.6431 24.4079 65.6258 24.5667 65.6146 24.727C65.5912 25.0621 65.5745 25.3973 65.566 25.7327C65.5607 25.9352 65.5581 26.1385 65.5581 26.3421V26.6784C65.5537 26.6796 65.5499 26.6817 65.5455 26.6828C65.4157 26.7209 65.2897 26.7675 65.1658 26.8182C65.1257 26.8346 65.0861 26.8516 65.0466 26.8692C64.9373 26.9184 64.8301 26.9714 64.7264 27.0303C64.7111 27.0391 64.6944 27.0452 64.6792 27.054L51.9755 15.1533C51.1528 14.3831 49.8728 14.3843 49.0525 15.1574L8.1994 53.643C7.74618 54.0702 7.15702 54.2975 6.53094 54.2767C5.90838 54.258 5.33065 53.9981 4.9035 53.5449C4.47635 53.0917 4.25135 52.4993 4.2698 51.8767C4.28855 51.2542 4.54842 50.6761 5.00164 50.2493L48.9092 8.88611C49.3572 8.46424 49.9326 8.25301 50.508 8.25301C51.0813 8.25301 51.6549 8.46248 52.1023 8.88172L65.9902 21.8913C65.9762 21.9622 65.9662 22.0331 65.953 22.1037ZM68.1339 41.9117C67.736 41.9117 67.4126 41.5882 67.4126 41.1907V36.855H68.9858V41.9117H68.1339ZM66.9813 31.9217V30.7961H67.693C68.8719 30.7961 69.8275 29.8405 69.8275 28.6615V26.3415C69.8275 26.1742 69.8296 26.0075 69.834 25.8408C69.8422 25.5156 69.8609 25.1902 69.8864 24.865C69.8929 24.782 69.9023 24.6997 69.9099 24.6168C69.9327 24.3663 69.9594 24.1161 69.9925 23.8662C70.0033 23.7848 70.015 23.7036 70.0271 23.6222C70.0657 23.3579 70.1094 23.0945 70.1592 22.832C70.1703 22.7732 70.1809 22.7143 70.1923 22.6554C70.2565 22.3337 70.3276 22.0132 70.4085 21.6947C70.4088 21.693 70.4091 21.6912 70.4094 21.6895C71.1898 18.6312 72.7385 15.8099 74.9463 13.4975C77.5195 10.8027 80.7934 8.99012 84.3454 8.25594V13.9943C84.3454 17.3811 87.1007 20.1361 90.4875 20.1361H92.5022C95.8889 20.1361 98.644 17.3808 98.644 13.9943V8.25652C102.196 8.9907 105.47 10.8033 108.043 13.498C111.223 16.8276 113.038 21.211 113.156 25.8411C113.16 26.0075 113.162 26.1742 113.162 26.3415V28.6615C113.162 29.8405 114.118 30.7961 115.297 30.7961H116.009V31.9217H66.9813ZM73.3359 46.5336C73.332 46.5007 73.3285 46.4679 73.3247 46.4348C73.3054 46.2558 73.2901 46.0777 73.2787 45.9002C73.277 45.8717 73.2746 45.8433 73.2729 45.8149C73.2614 45.6101 73.255 45.4062 73.255 45.2038V36.855H109.734V45.1592C109.734 45.3637 109.728 45.57 109.716 45.7768C109.715 45.8005 109.713 45.8243 109.711 45.848C109.7 46.0296 109.684 46.2122 109.664 46.3953C109.661 46.4275 109.657 46.4597 109.654 46.492C109.63 46.6926 109.603 46.8939 109.569 47.0961C109.569 47.0972 109.569 47.0981 109.569 47.0993C108.812 51.6652 105.545 56.539 101.54 59.4602C101.512 59.481 101.483 59.5024 101.454 59.5229C101.327 59.6143 101.199 59.7019 101.071 59.7892C101 59.837 100.93 59.8865 100.859 59.9331C100.822 59.9577 100.784 59.9806 100.746 60.0049C100.616 60.089 100.486 60.1727 100.354 60.253C100.347 60.2571 100.341 60.2624 100.335 60.2665C99.1447 60.9901 97.9081 61.5336 96.6671 61.8424L96.4438 61.898C91.8905 63.0304 90.8452 63.0277 86.2751 61.8755C85.0458 61.5655 83.8209 61.0244 82.6417 60.3055C82.6391 60.3037 82.6368 60.3016 82.6341 60.3002C82.587 60.2715 82.541 60.2407 82.4938 60.2114C82.3543 60.1244 82.2152 60.0368 82.0772 59.9451C82.0429 59.9225 82.0092 59.8985 81.9752 59.8757C77.5552 56.8868 73.9121 51.4631 73.3359 46.5336ZM81.4842 71.0812C82.7932 70.5843 83.6583 69.3427 83.6583 67.9262L83.6586 65.5276C84.1789 65.7187 84.7039 65.8818 85.2319 66.0151C87.854 66.6761 89.6206 67.006 91.3898 67.006C93.1388 67.006 94.8908 66.6837 97.4748 66.0412L97.698 65.9855C98.2462 65.8493 98.7908 65.6797 99.331 65.4814L99.3313 67.9262C99.3313 69.343 100.196 70.5849 101.505 71.0815L104.926 72.7985C104.885 72.8299 104.845 72.863 104.804 72.8941C104.71 72.9647 104.614 73.0329 104.519 73.1021C104.339 73.2324 104.159 73.3605 103.975 73.485C103.873 73.5547 103.771 73.6233 103.667 73.6912C103.481 73.8137 103.292 73.9326 103.102 74.0492C103.005 74.1087 102.908 74.1694 102.811 74.2274C102.579 74.3651 102.343 74.4975 102.106 74.6264C102.05 74.6569 101.995 74.6894 101.939 74.7193C101.645 74.8757 101.348 75.0248 101.047 75.1678C100.966 75.2062 100.884 75.241 100.803 75.2785C100.581 75.3808 100.357 75.4807 100.132 75.5753C100.024 75.621 99.914 75.6641 99.8047 75.708C99.6006 75.7898 99.3955 75.8689 99.1889 75.9447C99.075 75.9866 98.9607 76.0279 98.8459 76.0678C98.6314 76.1422 98.4155 76.2125 98.1987 76.2805C98.095 76.313 97.9916 76.347 97.8873 76.378C97.6016 76.463 97.3139 76.5421 97.0245 76.6153C96.9896 76.6241 96.9553 76.6347 96.9205 76.6432C96.5947 76.724 96.2663 76.7964 95.9361 76.8626C95.8415 76.8817 95.746 76.8972 95.6507 76.9151C95.4137 76.9593 95.1761 77.0012 94.9368 77.0378C94.8187 77.056 94.7003 77.0721 94.582 77.0882C94.3596 77.1187 94.1367 77.1459 93.9128 77.1699C93.7924 77.1828 93.6717 77.1954 93.5507 77.2066C93.3137 77.228 93.0755 77.2446 92.8368 77.2587C92.7331 77.2649 92.6296 77.2728 92.5253 77.2775C92.1829 77.293 91.8395 77.3024 91.4944 77.3024C91.1493 77.3024 90.8059 77.2927 90.4634 77.2775C90.3594 77.2728 90.2563 77.2649 90.1529 77.2587C89.9138 77.2446 89.6753 77.228 89.4377 77.2066C89.317 77.1957 89.1966 77.1828 89.0765 77.1702C88.8524 77.1462 88.6292 77.119 88.4065 77.0885C88.2884 77.0724 88.1701 77.0563 88.0523 77.0381C87.8129 77.0015 87.5748 76.9596 87.3374 76.9151C87.2425 76.8972 87.147 76.8817 87.0527 76.8629C86.7222 76.7967 86.3938 76.7243 86.068 76.6432C86.034 76.6347 86.0006 76.6244 85.9666 76.6159C85.6763 76.5424 85.3877 76.463 85.1012 76.3778C84.9975 76.347 84.895 76.313 84.7918 76.2808C84.5742 76.2125 84.3574 76.1419 84.142 76.0672C84.0284 76.0277 83.915 75.9866 83.8019 75.9453C83.5942 75.8692 83.3876 75.7895 83.1823 75.7071C83.0742 75.6638 82.9661 75.621 82.8588 75.5759C82.6306 75.4801 82.405 75.3793 82.1803 75.2759C82.1018 75.2399 82.0224 75.2059 81.9445 75.1687C81.6427 75.0254 81.3442 74.8757 81.0489 74.7187C80.9961 74.6906 80.9449 74.6601 80.8924 74.6317C80.6516 74.501 80.4128 74.3665 80.177 74.2268C80.0812 74.1699 79.9868 74.1108 79.8919 74.0525C79.6994 73.9344 79.5081 73.814 79.3192 73.6898C79.2181 73.6236 79.1179 73.5562 79.018 73.4882C78.8323 73.3619 78.6486 73.2318 78.4663 73.0994C78.3735 73.032 78.2803 72.9655 78.1886 72.8967C78.1467 72.8653 78.106 72.8314 78.0644 72.7997L81.4842 71.0812ZM38.791 119.081C38.3644 119.081 37.9683 118.91 37.6756 118.598C37.3815 118.284 37.2344 117.875 37.262 117.446C37.2628 117.432 37.2637 117.417 37.2643 117.403L38.2999 93.7215C38.5285 90.2056 39.9901 86.9818 42.3136 84.5381C42.3359 84.517 42.3593 84.4974 42.3807 84.4751C43.7474 83.0548 45.4056 81.916 47.2162 81.1452C47.254 81.1291 47.292 81.1133 47.3301 81.0978C47.571 80.9976 47.8138 80.9024 48.0593 80.8154L51.2794 79.6775V119.081H38.791ZM52.5995 74.6832L46.6373 76.7905C46.4134 76.8696 46.192 76.9526 45.9728 77.0393C45.9031 77.0668 45.8351 77.0973 45.766 77.1254C45.7118 77.1477 45.6579 77.1702 45.604 77.1931C45.5099 77.2326 45.4147 77.2701 45.3215 77.3112C45.2187 77.3563 45.1182 77.4052 45.0163 77.4521C44.9055 77.503 44.7936 77.5523 44.6843 77.6053C44.5812 77.6554 44.4801 77.7087 44.3782 77.7603C44.2724 77.8139 44.1652 77.8657 44.0606 77.9214C43.9645 77.9724 43.8705 78.0269 43.7752 78.0793C43.6674 78.1391 43.5585 78.1971 43.4518 78.2586C43.3581 78.3128 43.2667 78.3705 43.1738 78.4262C43.1061 78.4669 43.0381 78.507 42.971 78.5484L42.9406 56.7377L58.2046 56.7163L58.2268 72.6852L52.7029 74.6372C52.6669 74.6498 52.6343 74.6686 52.5995 74.6832ZM55.5485 119.081V78.1687L69.6696 73.1779L71.3035 81.1971C71.9147 84.1965 73.7513 86.8517 76.342 88.4818L89.3601 96.6732V119.081H55.5485ZM78.6158 84.8686C77.0068 83.8564 75.8665 82.2073 75.4868 80.3448L74.4781 75.3934C74.5578 75.4605 74.6346 75.532 74.7149 75.5979C79.4223 79.4668 85.2893 81.5709 91.4953 81.5709C93.2147 81.5709 94.9072 81.406 96.5572 81.0902C100.964 80.2467 105.058 78.3008 108.512 75.3934L107.503 80.3448C107.124 82.2073 105.984 83.8561 104.375 84.8683L91.4953 92.9724L78.6158 84.8686ZM127.441 119.081H93.6296V96.6735L106.648 88.4821C109.239 86.8517 111.076 84.1965 111.686 81.1974L113.32 73.1779L127.441 78.1687V119.081Z" fill="white"/>
</svg>
