<svg width="150" height="150" viewBox="0 0 150 150" fill="none" xmlns="http://www.w3.org/2000/svg">
<path d="M148.641 70.5662C147.819 70.2252 146.872 70.4136 146.242 71.0432L139.648 77.637V32.8036C139.648 31.5875 138.662 30.602 137.446 30.602H120.53L126.671 24.4613C126.671 24.4605 126.672 24.4593 126.673 24.4584L132.59 18.5416C133.858 17.2739 134.556 15.5876 134.556 13.7946C134.556 12.0016 133.858 10.3159 132.59 9.04764L125.748 2.20563C124.48 0.937953 122.794 0.239807 121.001 0.239807C119.208 0.239807 117.522 0.937953 116.254 2.20563L110.334 8.12537L103.181 15.2785L87.858 30.6017H19.5176V8.82088C19.5176 7.60476 18.5318 6.61921 17.316 6.61921C7.76808 6.6198 0 14.3873 0 23.9358V117.447C0 117.61 0.01875 117.768 0.0521485 117.921C0.356251 121.972 2.10909 125.736 5.03849 128.594C8.16974 131.648 12.3032 133.33 16.6779 133.33H83.9548L71.2841 146.001C70.6545 146.63 70.4662 147.577 70.8069 148.4C71.1476 149.223 71.9506 149.759 72.841 149.759H147.799C149.014 149.759 150 148.773 150 147.557V72.6003C150 71.71 149.464 70.9069 148.641 70.5662ZM119.368 5.3196C120.268 4.41901 121.735 4.41901 122.635 5.3196L129.477 12.1619C130.378 13.0622 130.378 14.5279 129.477 15.4285L125.114 19.7914L115.005 9.6825L119.368 5.3196ZM111.891 12.7962L122 22.9048L117.961 26.9445L107.852 16.8359L111.891 12.7962ZM145.598 97.3392H141.536C140.319 97.3392 139.334 98.3248 139.334 99.5409C139.334 100.757 140.319 101.743 141.536 101.743H145.598V108.377H141.536C140.319 108.377 139.334 109.363 139.334 110.579C139.334 111.795 140.319 112.78 141.536 112.78H145.598V119.415H141.536C140.319 119.415 139.334 120.4 139.334 121.616C139.334 122.833 140.319 123.818 141.536 123.818H145.598V130.453H141.536C140.319 130.453 139.334 131.438 139.334 132.654C139.334 133.87 140.319 134.856 141.536 134.856H145.598V145.357H78.156L100.395 123.118C101.255 122.258 101.255 120.864 100.395 120.004C100.296 119.906 100.19 119.82 100.079 119.744C99.2217 119.157 98.0422 119.243 97.2808 120.004L88.3581 128.927H16.6782C10.0008 128.927 4.6254 123.714 4.41388 117.049C4.42647 116.63 4.45899 116.215 4.51114 115.805C4.51144 115.803 4.51173 115.801 4.51202 115.798C4.53663 115.603 4.56622 115.41 4.59991 115.217C4.60372 115.195 4.60782 115.173 4.61163 115.151C4.64239 114.979 4.67696 114.808 4.71476 114.637C4.7253 114.59 4.73644 114.542 4.74757 114.495C4.78097 114.351 4.817 114.208 4.85567 114.065C4.87677 113.988 4.89874 113.911 4.9213 113.834C4.95353 113.722 4.98692 113.611 5.02237 113.5C5.05782 113.39 5.09562 113.281 5.134 113.171C5.16066 113.095 5.18702 113.018 5.21573 112.942C5.26935 112.798 5.32618 112.656 5.38478 112.514C5.40148 112.473 5.41788 112.432 5.43517 112.391C5.51046 112.216 5.58868 112.042 5.6713 111.87C5.67482 111.863 5.67804 111.856 5.68155 111.848C7.40363 108.285 10.7156 105.628 14.6904 104.803C14.7015 104.801 14.7126 104.798 14.7238 104.796C14.906 104.759 15.09 104.727 15.2751 104.697C15.3059 104.692 15.3367 104.686 15.368 104.681C15.5353 104.656 15.7043 104.636 15.8734 104.617C15.9208 104.612 15.968 104.604 16.0158 104.6C16.1789 104.583 16.3436 104.572 16.5082 104.562C16.5604 104.559 16.6125 104.553 16.6647 104.551C16.8803 104.54 17.0977 104.534 17.316 104.534C18.5318 104.534 19.5176 103.549 19.5176 102.333V86.369C19.5176 85.1529 18.5318 84.1673 17.316 84.1673C16.1001 84.1673 15.1143 85.1529 15.1143 86.369V100.269C11.3965 100.74 7.94562 102.398 5.22452 105.055C4.93829 105.335 4.667 105.625 4.40274 105.921V23.9358C4.40274 17.5663 9.03928 12.2586 15.114 11.2103V32.8036V77.5626V77.5629C15.114 78.7787 16.0998 79.7646 17.3157 79.7646C18.5315 79.7646 19.5173 78.7787 19.5173 77.5629V77.5626V35.0053H83.455L71.2838 47.1764C70.424 48.0366 70.424 49.4302 71.2838 50.2901C72.1437 51.1497 73.5377 51.1497 74.3972 50.2901L90.3268 34.3605C90.3274 34.3599 90.3277 34.3593 90.3283 34.359L104.738 19.9493L114.846 30.0582L113.66 31.2442C113.66 31.245 113.658 31.2459 113.657 31.2468L69.2644 75.6404L59.1558 65.5318L67.9062 56.7814C68.7661 55.9213 68.7661 54.5276 67.9062 53.6677C67.0463 52.8082 65.6524 52.8082 64.7928 53.6677L54.4853 63.975C54.4302 64.0301 54.3786 64.0884 54.3303 64.1481C54.3142 64.168 54.2998 64.1894 54.2846 64.2102C54.2535 64.2515 54.2231 64.2931 54.1946 64.3365C54.1785 64.3617 54.1639 64.3875 54.1486 64.4136C54.1243 64.4546 54.1009 64.4962 54.0795 64.5387C54.0654 64.5662 54.0528 64.594 54.04 64.6227C54.0203 64.6658 54.0022 64.7097 53.9855 64.7537C53.9796 64.7692 53.972 64.7839 53.9664 64.7994L49.6771 76.9503L46.7526 85.2352C46.714 85.3453 46.6861 85.4572 46.6653 85.57H39.3434C38.1276 85.57 37.1418 86.5556 37.1418 87.7717C37.1418 88.9878 38.1276 89.9734 39.3434 89.9734H100.314C101.531 89.9734 102.516 88.9878 102.516 87.7717C102.516 86.5556 101.531 85.57 100.314 85.57H56.5703L69.9971 80.8304C70.0082 80.8263 70.0188 80.8207 70.0299 80.8166C70.0821 80.7973 70.1333 80.7756 70.184 80.7524C70.2042 80.7431 70.2245 80.7343 70.2441 80.7246C70.2968 80.6982 70.3487 80.6693 70.3997 80.6382C70.4161 80.6282 70.4331 80.6191 70.4492 80.6089C70.5022 80.5749 70.5538 80.5377 70.6044 80.4985C70.617 80.4888 70.6302 80.4803 70.6425 80.4703C70.7038 80.4211 70.7638 80.3681 70.8206 80.3112L116.127 35.0056H135.244V82.0406L103.751 113.534C102.891 114.394 102.891 115.788 103.751 116.648C103.805 116.701 103.861 116.752 103.919 116.799C104.322 117.128 104.815 117.292 105.308 117.292C105.801 117.292 106.294 117.128 106.698 116.799C106.755 116.752 106.811 116.701 106.865 116.648C106.866 116.647 106.865 116.648 106.866 116.647L145.598 77.9148V97.3392ZM65.2375 77.8403L58.9311 80.0666L54.7293 75.8648L56.9556 69.5584L65.2375 77.8403Z" fill="white"/>
</svg>
