<svg width="150" height="150" viewBox="0 0 150 150" fill="none" xmlns="http://www.w3.org/2000/svg">
<path d="M141.067 50.0635C141.067 50.0632 141.066 50.0629 141.066 50.0626L136.954 46.9079C135.795 46.0205 134.131 46.2396 133.242 47.3974L128.869 53.0986L128.667 52.9436C127.258 51.8626 125.232 52.1292 124.15 53.5386L74.792 117.881C74.7917 117.882 74.7915 117.882 74.7912 117.882C74.7909 117.883 74.7906 117.883 74.7903 117.884C74.7519 117.934 74.7217 117.989 74.6883 118.042C74.6614 118.084 74.6306 118.124 74.6069 118.168C74.5533 118.268 74.5073 118.372 74.4701 118.48L68.0142 137.056C68.0139 137.056 68.0136 137.057 68.0133 137.058L68.0092 137.07C67.6483 138.109 67.9925 139.256 68.865 139.925C69.3217 140.276 69.8672 140.452 70.4139 140.452C70.9117 140.452 71.4106 140.305 71.8439 140.011L71.8562 140.003C71.8565 140.003 71.8565 140.003 71.8568 140.003L88.1256 128.955C88.217 128.893 88.304 128.823 88.3855 128.747C88.4198 128.714 88.4488 128.677 88.4807 128.643C88.5232 128.598 88.5686 128.554 88.607 128.506C88.6099 128.502 88.6122 128.498 88.6152 128.494C88.6166 128.492 88.6187 128.491 88.6205 128.489L133.042 70.5824L134.365 71.5978L116.17 95.316C115.453 96.2514 115.63 97.5915 116.565 98.309C116.953 98.6063 117.409 98.7502 117.863 98.7502C118.504 98.7502 119.138 98.4625 119.558 97.9146L138.309 73.4711C139.435 72.0033 139.157 69.893 137.689 68.7666L135.64 67.1948L137.979 64.1456C139.059 62.7367 138.793 60.7111 137.384 59.6298L137.181 59.4748L141.554 53.7742C142.443 52.6173 142.224 50.9526 141.067 50.0635ZM73.75 133.557L77.5342 122.667L83.287 127.081L73.75 133.557ZM86.5357 124.192L79.4828 118.781L126.9 56.9693L133.953 62.3799L86.5357 124.192ZM133.794 56.8764L132.256 55.6972L135.642 51.2834L137.18 52.4626L133.794 56.8764Z" fill="white"/>
<path d="M107.329 67.2451H23.1739C21.9947 67.2451 21.0391 68.2007 21.0391 69.3799C21.0391 70.5588 21.9947 71.5148 23.1739 71.5148H107.329C108.508 71.5145 109.464 70.5588 109.464 69.3799C109.464 68.201 108.508 67.2451 107.329 67.2451Z" fill="white"/>
<path d="M86.9301 89.2735H23.1739C21.9947 89.2735 21.0391 90.2292 21.0391 91.4084C21.0391 92.5873 21.9947 93.5432 23.1739 93.5432H86.9301C88.1093 93.5429 89.0649 92.5873 89.0649 91.4084C89.0649 90.2295 88.1093 89.2735 86.9301 89.2735Z" fill="white"/>
<path d="M61.6937 133.33H23.1739C21.9947 133.33 21.0391 134.286 21.0391 135.465C21.0391 136.644 21.9947 137.6 23.1739 137.6H61.6937C62.8729 137.6 63.8286 136.644 63.8286 135.465C63.8286 134.286 62.8729 133.33 61.6937 133.33Z" fill="white"/>
<path d="M107.329 133.33H88.4487C87.2695 133.33 86.3138 134.286 86.3138 135.465C86.3138 136.644 87.2695 137.6 88.4487 137.6H107.329C108.508 137.6 109.464 136.644 109.464 135.465C109.464 134.286 108.508 133.33 107.329 133.33Z" fill="white"/>
<path d="M121.224 52.8141C122.403 52.8141 123.359 51.8584 123.359 50.6792V36.2221C123.359 36.1978 123.356 36.174 123.355 36.15C123.354 36.126 123.353 36.1022 123.352 36.0785C123.345 35.9874 123.335 35.8969 123.318 35.8081C123.318 35.8072 123.318 35.8063 123.318 35.8055C123.3 35.7149 123.274 35.6268 123.244 35.5397C123.237 35.5175 123.229 35.4958 123.221 35.4738C123.19 35.3912 123.156 35.3104 123.115 35.2321C123.113 35.228 123.111 35.2236 123.109 35.2195C123.065 35.1381 123.015 35.0602 122.961 34.9846C122.947 34.9655 122.933 34.9468 122.919 34.9283C122.862 34.8533 122.801 34.7804 122.734 34.713L88.6462 0.625195C88.5786 0.557813 88.5059 0.497168 88.4309 0.439746C88.4122 0.425391 88.3934 0.411328 88.3741 0.397559C88.2985 0.343945 88.2211 0.293262 88.1397 0.250195C88.1347 0.247559 88.1297 0.245801 88.1248 0.243164C88.0474 0.202734 87.9674 0.168457 87.8857 0.137988C87.8631 0.129492 87.8409 0.121582 87.818 0.113672C87.7316 0.084668 87.644 0.0588867 87.5543 0.0410156C87.5511 0.0404297 87.5479 0.0401367 87.5447 0.0395508C87.4585 0.0228516 87.3707 0.0128906 87.2822 0.00703125C87.2567 0.00527344 87.2315 0.00410156 87.206 0.00322266C87.1829 0.00263672 87.16 0 87.1366 0H12.3337C9.88892 0 7.89966 1.98896 7.89966 4.43379V145.566C7.89966 148.011 9.88862 150 12.3337 150H118.924C121.369 150 123.358 148.011 123.358 145.566V102.738C123.358 101.559 122.403 100.603 121.223 100.603C120.044 100.603 119.089 101.559 119.089 102.738V145.566C119.089 145.657 119.015 145.731 118.924 145.731H12.3337C12.2432 145.731 12.1691 145.657 12.1691 145.566V4.43379C12.1691 4.34326 12.2429 4.26943 12.3337 4.26943H85.002V33.8458C85.002 36.3331 87.0255 38.3566 89.5128 38.3566H119.089V50.6792C119.089 51.8581 120.045 52.8141 121.224 52.8141ZM89.5126 34.0869C89.3795 34.0869 89.2711 33.9785 89.2711 33.8455V7.28848H89.2714L116.07 34.0869H89.5126Z" fill="white"/>
<path d="M60.5 30.4368L42.6494 13.6678C41.8277 12.8959 40.548 12.8959 39.7265 13.6678L21.8759 30.4368C21.0163 31.2439 20.9741 32.5951 21.7813 33.4544C22.5887 34.3134 23.9393 34.3558 24.7988 33.5487L41.1878 18.1529L57.5768 33.5487C57.989 33.9354 58.5143 34.1273 59.0381 34.1273C59.607 34.1273 60.1745 33.9014 60.5946 33.4544C61.4018 32.5951 61.3596 31.2439 60.5 30.4368Z" fill="white"/>
<path d="M54.531 33.1897L43.6047 22.925C42.2501 21.6523 40.1269 21.6523 38.7722 22.925L27.8454 33.1897C27.1381 33.8542 26.7327 34.7917 26.7327 35.7617V50.6931C26.7327 52.639 28.3159 54.2222 30.2618 54.2222H52.1149C54.0608 54.2222 55.644 52.639 55.644 50.6931V35.7617C55.644 34.7917 55.2385 33.8542 54.531 33.1897ZM42.754 49.9528H39.623V42.5524H42.754V49.9528ZM47.0234 49.9528V41.1998C47.0234 39.5914 45.715 38.283 44.1069 38.283H38.2704C36.662 38.283 35.3539 39.5914 35.3539 41.1998V49.9528H31.0021V36.0822L41.1883 26.5129L51.3746 36.0822V49.9528H47.0234Z" fill="white"/>
<path d="M67.933 111.301H44.1194C42.9402 111.301 41.9845 112.257 41.9845 113.436C41.9845 114.615 42.9402 115.571 44.1194 115.571H67.933C69.1122 115.57 70.0679 114.615 70.0679 113.436C70.0679 112.257 69.1122 111.301 67.933 111.301Z" fill="white"/>
<path d="M30.8563 111.301H23.436C22.2568 111.301 21.3011 112.256 21.3011 113.436C21.3011 114.615 22.2571 115.57 23.436 115.57H30.8563C32.0355 115.57 32.9912 114.615 32.9912 113.436C32.9912 112.256 32.0355 111.301 30.8563 111.301Z" fill="white"/>
</svg>
