<svg width="150" height="150" viewBox="0 0 150 150" fill="none" xmlns="http://www.w3.org/2000/svg">
<path d="M51.216 80.5992C52.4298 80.5992 53.4133 79.6158 53.4133 78.402C53.4133 77.1882 52.4298 76.2047 51.216 76.2047H41.2972V69.6153C41.2972 68.4015 40.3137 67.418 39.1 67.418C37.8862 67.418 36.9027 68.4015 36.9027 69.6153V76.2047H29.1809V50.8295C29.1809 49.2126 27.925 47.9464 26.3216 47.9464H3.7905C1.97585 47.9464 0.554077 49.5176 0.554077 51.5233V146.423C0.554077 148.428 1.97585 149.999 3.7905 149.999H50.1768C51.9613 149.999 53.4133 148.395 53.4133 146.423V123.64C53.4133 122.427 52.4298 121.443 51.216 121.443C50.0022 121.443 49.0187 122.427 49.0187 123.64V145.605H4.9489V52.3409H24.7867V57.8704H17.3646C16.1509 57.8704 15.1674 58.8539 15.1674 60.0677C15.1674 61.2815 16.1509 62.265 17.3646 62.265H24.7864V70.2437H18.1272C16.9135 70.2437 15.93 71.2272 15.93 72.4409C15.93 73.6547 16.9135 74.6382 18.1272 74.6382H24.7864V94.053C24.7864 95.2667 25.7699 96.2502 26.9837 96.2502H49.0187V113.424C49.0187 114.638 50.0022 115.621 51.216 115.621C52.4298 115.621 53.4133 114.638 53.4133 113.424V94.7385C53.4133 92.9578 51.8813 91.8557 50.4619 91.8557H41.2972V80.5992H51.216ZM36.9027 91.8557H29.1809V80.5992H36.9024V91.8557H36.9027Z" fill="white"/>
<path d="M126.144 101.626V90.7764V70.8967C126.144 70.8958 126.144 70.8946 126.144 70.8937V64.558V40.164C126.144 40.1631 126.144 40.1619 126.144 40.161V38.3399V26.993H130.423C132.42 26.993 134.045 25.3696 134.045 23.3742V23.1721H145.43C146.403 23.1721 147.296 22.8568 147.992 22.3336C148.118 22.2492 148.237 22.1508 148.347 22.0374C148.372 22.0119 148.394 21.9844 148.417 21.958C149.054 21.3144 149.446 20.4671 149.446 19.5369V7.45605C149.446 5.45127 147.644 3.82061 145.43 3.82061H134.045V3.61875C134.045 1.62334 132.421 0 130.424 0H102.479C100.483 0 98.8578 1.62334 98.8578 3.61875V3.82061H94.7035H70.257C70.2544 3.82061 70.252 3.82061 70.2494 3.82061H68.4265H36.9716C34.753 3.82061 32.948 5.45127 32.948 7.45605V19.5366C32.948 21.5411 34.753 23.1718 36.9716 23.1718H47.4268V30.7465L39.2984 39.3858H37.2904C35.3673 39.3858 33.8029 40.9491 33.8029 42.8707V53.1457C33.8029 55.0717 35.3673 56.6388 37.2904 56.6388H61.9502C63.8779 56.6388 65.4462 55.0717 65.4462 53.1457V42.8707C65.4462 40.9491 63.8779 39.3858 61.9502 39.3858H59.9503L51.8216 30.7465V23.1721H68.4271H94.7038H98.8581V23.3742C98.8581 25.3696 100.483 26.993 102.48 26.993H106.759V38.3394V64.5577V90.7761V114.797H99.8732C96.8275 114.797 94.3496 117.272 94.3496 120.313V134.645H91.9387C87.6962 134.645 84.2445 138.091 84.2445 142.327V146.331C84.2445 148.354 85.8957 150 87.9251 150H145.674C147.698 150 149.345 148.354 149.345 146.331V142.327C149.345 138.091 145.897 134.645 141.66 134.645H139.249V120.313C139.249 117.272 136.767 114.797 133.717 114.797H126.144V101.629C126.144 101.629 126.144 101.628 126.144 101.626ZM145.051 8.21602V15.7746L137.266 8.21572L145.051 8.21602ZM134.045 11.2137L141.836 18.7775H134.045V11.2137ZM37.3425 18.7764V8.21514H38.5607L49.4357 18.7767L37.3425 18.7764ZM61.0513 43.7807V52.2445H38.1971V43.7807H61.0513ZM53.9161 39.3861H45.3321L49.6241 34.8243L53.9161 39.3861ZM44.8683 8.21514H64.8371L54.8527 17.9118L44.8683 8.21514ZM68.4268 18.7775L60.2694 18.7772L70.2535 9.08086L80.2378 18.7775H68.4268ZM75.6696 8.21514H94.7035H95.6386L85.654 17.9118L75.6696 8.21514ZM94.7035 18.7775H91.0704L98.8578 11.2148V18.7775H94.7035ZM133.716 119.192C134.344 119.192 134.854 119.695 134.854 120.314V134.645H122.061C120.847 134.645 119.864 135.628 119.864 136.842C119.864 138.056 120.847 139.039 122.061 139.039H141.66C143.474 139.039 144.951 140.514 144.951 142.327V145.605H88.639V142.327C88.639 140.514 90.1194 139.039 91.9387 139.039H111.42C112.634 139.039 113.617 138.056 113.617 136.842C113.617 135.628 112.634 134.645 111.42 134.645H98.7441V120.314C98.7441 119.706 99.2615 119.192 99.8732 119.192H108.956H123.946H133.716ZM120.877 40.1622L111.154 50.1296V38.3394V30.1945L120.877 40.1622ZM114.169 26.993H121.749V34.7634L114.169 26.993ZM121.749 45.561V64.5577V65.4958L112.026 55.5281L121.749 45.561ZM120.877 70.8949L111.154 80.8626V64.5577V60.9272L120.877 70.8949ZM121.749 76.294V90.7764V96.2291L112.026 86.2614L121.749 76.294ZM120.877 101.628L111.154 111.596V91.6606L120.877 101.628ZM121.749 107.027V114.797H114.169L121.749 107.027ZM123.946 22.5984H108.985C108.984 22.5984 108.982 22.5984 108.98 22.5984H108.956H103.252V4.39453H129.65V22.5984H123.946Z" fill="white"/>
<path d="M43.7524 106.1C43.7524 104.289 42.2817 102.816 40.4743 102.816H13.4937C11.6814 102.816 10.2072 104.289 10.2072 106.1V115.062C10.2072 116.874 11.6814 118.347 13.4937 118.347H40.4743C42.282 118.347 43.7524 116.874 43.7524 115.062V106.1ZM24.7864 113.952H14.6017V107.21H24.7867V113.952H24.7864ZM39.3578 113.952H29.181V107.21H39.3575V113.952H39.3578Z" fill="white"/>
<path d="M40.474 124.913H13.4937C11.6814 124.913 10.2072 126.386 10.2072 128.197V137.16C10.2072 138.971 11.6814 140.444 13.4937 140.444H40.4743C42.282 140.444 43.7524 138.971 43.7524 137.16V128.197C43.7524 126.386 42.2817 124.913 40.474 124.913ZM24.7864 136.049H14.6017V129.308H24.7867V136.049H24.7864ZM39.3578 136.049H29.181V129.308H39.3575V136.049H39.3578Z" fill="white"/>
</svg>
