<svg width="354" height="90" viewBox="0 0 354 90" fill="none" xmlns="http://www.w3.org/2000/svg">
<path d="M354.001 0H-0.146729V90H354.001V0Z" fill="#E42629"/>
<path d="M213.119 36.9574H230.726V25.6057L221.913 19.3013L213.119 25.6057V36.9574Z" fill="white"/>
<path d="M218.632 52.7832C220.789 52.7832 222.448 53.4303 223.573 54.7245C224.716 56.0186 225.288 57.775 225.288 60.012C225.288 62.2306 224.716 63.987 223.573 65.2996C222.43 66.5938 220.789 67.2409 218.632 67.2409H212.916V52.8017H218.632V52.7832ZM218.429 65.0223C221.434 65.0223 222.817 63.0071 222.817 60.012C222.817 57.017 221.471 55.0018 218.429 55.0018H215.35V65.0408H218.429V65.0223Z" fill="white"/>
<path d="M236.83 62.2674H229.252C229.307 64.449 230.284 65.5398 232.128 65.5398C233.327 65.5398 234.064 65.0961 234.359 64.2272H236.682C236.277 66.1869 234.691 67.4811 232.11 67.4811C230.524 67.4811 229.27 66.9819 228.367 65.965C227.464 64.9482 227.003 63.6355 227.003 62.0086C227.003 60.3816 227.445 59.069 228.349 58.1261C229.252 57.1462 230.506 56.6655 232.054 56.6655C233.529 56.6655 234.691 57.1277 235.521 58.0336C236.369 58.9396 236.811 60.1043 236.83 61.4909V62.2674ZM229.363 60.5665H234.507C234.341 59.3463 233.474 58.4774 232.054 58.4774C230.524 58.4774 229.621 59.2908 229.363 60.5665Z" fill="white"/>
<path d="M240.757 67.2227L237.586 56.9248H239.909L242.342 65.0596H243.264L245.624 56.9248H247.947L244.758 67.2227H240.757Z" fill="white"/>
<path d="M258.512 62.2674H250.934C250.99 64.449 251.967 65.5398 253.81 65.5398C255.009 65.5398 255.746 65.0961 256.041 64.2272H258.365C257.959 66.1869 256.373 67.4811 253.792 67.4811C252.206 67.4811 250.953 66.9819 250.049 65.965C249.146 64.9482 248.685 63.6355 248.685 62.0086C248.685 60.3816 249.127 59.069 250.031 58.1261C250.934 57.1462 252.188 56.6655 253.737 56.6655C255.212 56.6655 256.373 57.1277 257.203 58.0336C258.051 58.9396 258.494 60.1043 258.512 61.4909V62.2674ZM251.026 60.5665H256.171C256.005 59.3463 255.138 58.4774 253.718 58.4774C252.188 58.4774 251.285 59.2908 251.026 60.5665Z" fill="white"/>
<path d="M260.614 52.5244H262.9V67.2224H260.614V52.5244Z" fill="white"/>
<path d="M273.926 65.9835C273.004 66.9819 271.75 67.4811 270.146 67.4811C268.542 67.4811 267.307 66.9819 266.348 65.9835C265.426 64.9667 264.965 63.654 264.965 62.0641C264.965 60.4741 265.426 59.1799 266.348 58.1816C267.288 57.1647 268.542 56.6655 270.146 56.6655C271.75 56.6655 272.986 57.1647 273.926 58.1816C274.866 59.1799 275.346 60.4741 275.346 62.0641C275.346 63.654 274.866 64.9852 273.926 65.9835ZM270.146 58.6068C268.266 58.6068 267.233 60.1228 267.233 62.0641C267.233 64.0238 268.266 65.5398 270.146 65.5398C272.027 65.5398 273.059 64.0238 273.059 62.0641C273.059 60.1228 272.027 58.6068 270.146 58.6068Z" fill="white"/>
<path d="M277.411 56.9244H279.605V57.9227H280.084C280.748 57.0908 281.762 56.6655 283.108 56.6655C284.454 56.6655 285.541 57.1647 286.334 58.1816C287.146 59.1984 287.551 60.4926 287.551 62.0641C287.551 63.654 287.146 64.9482 286.334 65.965C285.541 66.9819 284.454 67.4811 283.108 67.4811C281.78 67.4811 280.785 67.0558 280.158 66.2239H279.678V71.2526H277.392V56.9244H277.411ZM279.623 62.0641C279.623 64.0238 280.6 65.5398 282.462 65.5398C284.251 65.5398 285.265 64.1532 285.265 62.0641C285.265 59.9749 284.251 58.6068 282.462 58.6068C280.6 58.6068 279.623 60.1043 279.623 62.0641Z" fill="white"/>
<path d="M304.385 60.6408V67.2226H302.098V61.0291C302.098 59.4761 301.508 58.6996 300.347 58.6996C298.982 58.6996 298.171 59.7904 298.171 61.3434V67.2041H295.885V61.0291C295.885 59.4761 295.295 58.6811 294.133 58.6811C292.677 58.6811 291.939 59.9013 291.939 61.6022V67.2041H289.653V56.9062H291.847V57.8306H292.327C292.843 57.0356 293.709 56.6289 294.908 56.6289C296.143 56.6289 297.028 57.0541 297.563 57.8861H298.042C298.669 57.0541 299.609 56.6289 300.882 56.6289C303.26 56.6659 304.385 58.1449 304.385 60.6408Z" fill="white"/>
<path d="M316.222 62.2674H308.644C308.699 64.449 309.676 65.5398 311.52 65.5398C312.718 65.5398 313.456 65.0961 313.751 64.2272H316.074C315.669 66.1869 314.083 67.4811 311.502 67.4811C309.916 67.4811 308.662 66.9819 307.759 65.965C306.855 64.9482 306.394 63.6355 306.394 62.0086C306.394 60.3816 306.837 59.069 307.74 58.1261C308.644 57.1462 309.898 56.6655 311.446 56.6655C312.921 56.6655 314.083 57.1277 314.913 58.0336C315.761 58.9396 316.203 60.1043 316.222 61.4909V62.2674ZM308.736 60.5665H313.88C313.714 59.3463 312.848 58.4774 311.428 58.4774C309.916 58.4774 309.013 59.2908 308.736 60.5665Z" fill="white"/>
<path d="M327.819 67.2222H325.533V61.2321C325.533 59.5497 324.758 58.6992 323.246 58.6992C322.453 58.6992 321.808 58.995 321.31 59.5866C320.831 60.1783 320.591 60.8808 320.591 61.7128V67.2222H318.305V56.9244H320.499V57.9227H320.978C321.605 57.0908 322.601 56.6655 323.947 56.6655C326.454 56.6655 327.8 58.2 327.8 60.7884V67.2222H327.819Z" fill="white"/>
<path d="M333.166 56.9247H335.581V58.8659H333.166V63.8762C333.166 64.7821 333.682 65.2258 334.733 65.2258H335.581V67.2041H334.696C332.207 67.2041 330.879 66.3721 330.879 64.172V58.8474H329.238V56.9062H330.879V53.9111H333.166V56.9247Z" fill="white"/>
<path d="M42.3325 19.1719L62.9641 43.4467V19.1719H80.8669V67.2224H62.6875L40.0278 40.9323V67.2224H22.125V19.1719H42.3325Z" fill="white"/>
<path d="M101.609 30.0798H84.3884V19.1719H101.609V30.0798ZM101.609 67.2224H84.3884V32.4648H101.609V67.2224Z" fill="white"/>
<path d="M129.689 68.1837H126.223C105.592 68.1837 103.895 56.8875 103.895 50.1578V49.1225C103.895 42.5407 105.555 31.4849 126.186 31.4849H129.763C150.118 31.4849 151.833 42.4668 151.833 47.3107V47.4956H134.299C134.188 46.2753 133.451 41.7458 127.956 41.7458H127.735C122.462 41.7458 121.392 45.7577 121.392 49.2334V49.4183C121.392 53.2269 122.462 57.6825 127.735 57.6825H127.956C133.395 57.6825 134.243 52.8386 134.299 51.6184H151.833V51.8033C151.814 56.3698 150.597 68.1837 129.689 68.1837Z" fill="white"/>
<path d="M178.106 68.1838H175.543C155.447 68.1838 152.994 57.3313 152.994 50.1024V49.0671C152.994 41.8937 155.391 31.5034 175.488 31.5034H178.051C198.885 31.5034 200.858 42.4853 200.858 50.694V52.0437H169.938C170.197 55.0757 171.911 58.0523 177.074 58.0523C182.992 58.0523 183.73 54.9463 183.84 54.2438H200.784V54.2992C200.803 59.2725 198.517 68.1838 178.106 68.1838ZM183.748 44.9997C183.379 42.4114 181.665 40.5441 176.926 40.5441C171.967 40.5441 170.473 42.4853 170.049 44.9997H183.748Z" fill="white"/>
</svg>
